<svg aria-hidden="true" style="position: absolute; width: 0; height: 0; overflow: hidden;" version="1.1"
    xmlns="http://www.w3.org/2000/svg" xmlns:xlink="http://www.w3.org/1999/xlink">
    <defs>
        <symbol stroke="#000000" id="icon-more-icon" viewBox="0 0 34 32">
            <path stroke-linejoin="round" stroke-linecap="round" stroke-miterlimit="4" stroke-width="3.4286"
                d="M8.36 23.408l16.72-15.605"></path>
            <path stroke-linejoin="round" stroke-linecap="round" stroke-miterlimit="4" stroke-width="3.4286"
                d="M8.36 7.802h16.72v15.605"></path>
        </symbol>
        <symbol id="icon-cart-icon" viewBox="0 0 32 32">
            <path stroke-linejoin="round" stroke-linecap="round" stroke-miterlimit="4" stroke-width="2.6667"
                d="M12 29.333c0.736 0 1.333-0.597 1.333-1.333s-0.597-1.333-1.333-1.333c-0.736 0-1.333 0.597-1.333 1.333s0.597 1.333 1.333 1.333z">
            </path>
            <path stroke-linejoin="round" stroke-linecap="round" stroke-miterlimit="4" stroke-width="2.6667"
                d="M26.667 29.333c0.736 0 1.333-0.597 1.333-1.333s-0.597-1.333-1.333-1.333c-0.736 0-1.333 0.597-1.333 1.333s0.597 1.333 1.333 1.333z">
            </path>
            <path stroke-linejoin="round" stroke-linecap="round" stroke-miterlimit="4" stroke-width="2.6667"
                d="M1.333 1.333h5.333l3.573 17.853c0.122 0.614 0.456 1.165 0.943 1.558s1.098 0.601 1.723 0.589h12.96c0.626 0.012 1.236-0.197 1.723-0.589s0.821-0.944 0.943-1.558l2.133-11.187h-22.667">
            </path>
        </symbol>
        <symbol id="icon-search-icon" viewBox="0 0 32 32">
            <path stroke-linejoin="round" stroke-linecap="round" stroke-miterlimit="4" stroke-width="2.6667"
                d="M14.667 25.333c5.891 0 10.667-4.776 10.667-10.667s-4.776-10.667-10.667-10.667c-5.891 0-10.667 4.776-10.667 10.667s4.776 10.667 10.667 10.667z">
            </path>
            <path stroke-linejoin="round" stroke-linecap="round" stroke-miterlimit="4" stroke-width="2.6667"
                d="M28 28l-5.8-5.8"></path>
        </symbol>
        <symbol id="icon-mob-menu" viewBox="0 0 52 32">
            <path stroke-linejoin="miter" stroke-linecap="round" stroke-miterlimit="4" stroke-width="4" d="M2 2h48">
            </path>
            <path stroke-linejoin="miter" stroke-linecap="round" stroke-miterlimit="4" stroke-width="4" d="M2 16h48">
            </path>
            <path stroke-linejoin="miter" stroke-linecap="round" stroke-miterlimit="4" stroke-width="4" d="M2 30h48">
            </path>
        </symbol>
        <symbol id="icon-close-btn" viewBox="0 0 32 32">
            <path
                d="M32 3.223l-3.223-3.223-12.777 12.777-12.777-12.777-3.223 3.223 12.777 12.777-12.777 12.777 3.223 3.223 12.777-12.777 12.777 12.777 3.223-3.223-12.777-12.777 12.777-12.777z">
            </path>
        </symbol>
        <symbol id="icon-logo" viewBox="0 0 259 32">
            <path
                d="M16.114 31.913c-2.296 0-4.422-0.392-6.378-1.175-1.956-0.813-3.671-1.93-5.145-3.353-1.446-1.451-2.579-3.149-3.401-5.094-0.794-1.945-1.19-4.049-1.19-6.313 0-2.293 0.397-4.397 1.19-6.313 0.822-1.945 1.956-3.628 3.401-5.050 1.474-1.422 3.175-2.54 5.102-3.352 1.956-0.813 4.068-1.219 6.335-1.219 2.381 0 4.521 0.392 6.42 1.175 1.899 0.755 3.572 1.814 5.017 3.178l-5.102 5.224c-0.709-0.813-1.587-1.451-2.636-1.916s-2.282-0.697-3.699-0.697c-1.219 0-2.338 0.203-3.359 0.61-0.992 0.406-1.857 1.016-2.594 1.829-0.737 0.784-1.318 1.727-1.743 2.83-0.397 1.103-0.595 2.337-0.595 3.701s0.198 2.598 0.595 3.701c0.425 1.103 1.006 2.061 1.743 2.873 0.737 0.784 1.601 1.393 2.594 1.829 1.020 0.406 2.14 0.61 3.359 0.61 1.417 0 2.665-0.218 3.742-0.653 1.077-0.464 1.998-1.118 2.764-1.959l5.102 5.225c-1.474 1.364-3.146 2.424-5.017 3.178-1.842 0.755-4.011 1.132-6.505 1.132z">
            </path>
            <path d="M27.969 31.434l11.692-30.868h7.356l11.565 30.868h-7.951l-8.716-25.948h2.764l-8.929 25.948h-7.781z">
            </path>
            <path d="M61.404 31.434v-30.868h7.611v30.868h-7.611zM67.441 31.434v-6.705h14.541v6.705h-14.541z"></path>
            <path d="M85.528 31.434v-30.868h7.611v30.868h-7.611z"></path>
            <path
                d="M98.482 31.434v-30.868h7.611v30.868h-7.611zM104.52 19.897v-6.574h14.924v6.574h-14.924zM104.52 7.14v-6.574h15.604v6.574h-15.604z">
            </path>
            <path
                d="M138.438 32c-2.324 0-4.464-0.406-6.42-1.219s-3.671-1.945-5.145-3.396c-1.446-1.451-2.579-3.149-3.402-5.094-0.822-1.974-1.233-4.093-1.233-6.357s0.397-4.354 1.19-6.269c0.822-1.945 1.956-3.643 3.402-5.094s3.146-2.569 5.102-3.352c1.956-0.813 4.096-1.219 6.42-1.219s4.464 0.406 6.421 1.219c1.955 0.784 3.657 1.901 5.102 3.352s2.565 3.149 3.359 5.094c0.821 1.945 1.233 4.049 1.233 6.313s-0.411 4.368-1.233 6.313c-0.794 1.945-1.913 3.657-3.359 5.137-1.446 1.451-3.147 2.583-5.102 3.396-1.928 0.784-4.039 1.176-6.336 1.176zM138.353 25.034c1.701 0 3.175-0.377 4.422-1.132s2.21-1.814 2.892-3.178c0.68-1.364 1.020-2.961 1.020-4.789 0-1.335-0.199-2.554-0.595-3.657-0.369-1.103-0.922-2.046-1.659-2.83-0.737-0.813-1.616-1.437-2.636-1.872s-2.169-0.653-3.444-0.653c-1.701 0-3.175 0.377-4.422 1.132-1.247 0.726-2.211 1.771-2.891 3.135s-1.020 2.946-1.020 4.745c0 1.393 0.184 2.656 0.553 3.788 0.397 1.103 0.964 2.061 1.701 2.873 0.737 0.784 1.616 1.393 2.636 1.828 1.020 0.406 2.169 0.61 3.444 0.61z">
            </path>
            <path
                d="M164.311 18.939v-5.573h5.74c1.246 0 2.197-0.305 2.848-0.914 0.681-0.639 1.021-1.495 1.021-2.569 0-1.045-0.34-1.887-1.021-2.525-0.651-0.668-1.602-1.001-2.848-1.001h-5.74v-5.79h6.804c2.040 0 3.825 0.392 5.356 1.175 1.559 0.784 2.778 1.858 3.657 3.222s1.318 2.961 1.318 4.789c0 1.829-0.454 3.439-1.361 4.833-0.879 1.364-2.112 2.438-3.7 3.222-1.588 0.755-3.444 1.132-5.568 1.132h-6.507zM158.274 31.434v-30.868h7.611v30.868h-7.611zM174.601 31.434l-8.759-13.235 6.845-1.698 10.714 14.933h-8.8z">
            </path>
            <path
                d="M185.886 31.434v-30.868h5.314l2.296 6.313v24.555h-7.61zM206.677 31.434l-17.603-22.901 2.126-7.967 17.646 22.901-2.168 7.967zM206.677 31.434l-1.957-6.487v-24.381h7.611v30.868h-5.655z">
            </path>
            <path d="M217.69 31.434v-30.868h7.611v30.868h-7.611z"></path>
            <path d="M228.434 31.434l11.692-30.868h7.355l11.566 30.868h-7.95l-8.718-25.948h2.764l-8.928 25.948h-7.782z">
            </path>
        </symbol>
    </defs>
</svg>